<svg xmlns="http://www.w3.org/2000/svg" viewBox="0 0 160 154"><rect width="160" height="154" fill="#20272b"/><ellipse cx="80" cy="128" rx="51" ry="9" fill="#141b20"/><polygon points="74.24,32.49 38.05,43.07 125.88,42.58" fill="#72503a"/><polygon points="74.05,27.88 35.68,38.30 128.20,37.72" fill="#72503a"/><polygon points="91.26,132.78 120.74,109.03 125.88,42.58" fill="#5b3f2d"/><polygon points="40.45,81.39 41.97,102.63 85.54,98.58" fill="#24262b"/><polygon points="42.93,80.29 40.45,81.39 87.89,97.12" fill="#26282d"/><polygon points="61.89,99.11 62.38,99.35 61.96,99.08" fill="#6e7673"/><polygon points="61.59,98.93 61.89,99.11 61.96,99.08" fill="#6e7673"/><polygon points="63.35,101.22 63.21,101.72 63.29,101.81" fill="#666e6c"/><polygon points="60.94,98.88 61.16,98.81 60.67,98.79" fill="#7a8381"/><polygon points="60.69,98.87 60.67,98.79 60.18,98.87" fill="#7d8784"/><polygon points="62.38,99.35 62.55,99.67 62.77,99.72" fill="#666e6c"/><polygon points="58.66,99.94 58.44,100.44 58.28,100.92" fill="#828c89"/><polygon points="59.78,99.02 59.40,99.22 59.03,99.53" fill="#838d8a"/><polygon points="61.16,98.94 61.59,98.93 61.16,98.81" fill="#78817e"/><polygon points="62.55,99.67 62.98,100.12 62.77,99.72" fill="#666e6c"/><polygon points="63.21,101.72 63.14,102.28 63.29,101.81" fill="#666e6c"/><polygon points="60.43,98.91 60.18,98.87 59.78,99.02" fill="#808a87"/><polygon points="62.92,102.79 62.47,103.17 62.55,103.19" fill="#666e6c"/><polygon points="60.69,98.87 60.94,98.88 60.67,98.79" fill="#7a8381"/><polygon points="63.25,100.65 63.11,101.12 63.35,101.22" fill="#666e6c"/><polygon points="61.61,103.74 61.40,103.86 61.80,103.70" fill="#666e6c"/><polygon points="60.94,98.88 61.16,98.94 61.16,98.81" fill="#78817e"/><polygon points="60.43,98.91 60.69,98.87 60.18,98.87" fill="#7d8784"/><polygon points="62.47,103.17 62.18,103.51 62.55,103.19" fill="#666e6c"/><polygon points="59.61,103.65 59.99,103.80 60.42,103.91" fill="#666e6c"/><polygon points="62.18,103.51 61.61,103.74 61.80,103.70" fill="#666e6c"/><polygon points="59.03,99.53 58.66,99.94 58.52,100.36" fill="#858f8c"/><polygon points="59.51,99.24 59.78,99.02 59.03,99.53" fill="#838d8a"/><polygon points="61.32,99.03 61.89,99.11 61.59,98.93" fill="#767f7c"/><polygon points="61.89,99.11 62.01,99.35 62.38,99.35" fill="#6d7573"/><polygon points="58.22,101.50 58.33,102.08 58.55,102.54" fill="#7a8380"/><polygon points="58.81,103.02 59.20,103.38 59.61,103.65" fill="#68706e"/><polygon points="58.52,100.36 58.66,99.94 58.28,100.92" fill="#828c89"/><polygon points="61.16,98.94 61.32,99.03 61.59,98.93" fill="#767f7c"/><polygon points="62.01,99.35 62.55,99.67 62.38,99.35" fill="#6d7573"/><polygon points="60.22,98.99 60.43,98.91 59.78,99.02" fill="#808a87"/><polygon points="63.11,101.12 63.21,101.72 63.35,101.22" fill="#666e6c"/><polygon points="60.92,103.85 60.91,103.94 61.40,103.86" fill="#666e6c"/><polygon points="60.22,103.82 60.42,103.91 60.91,103.94" fill="#666e6c"/><polygon points="60.22,98.99 59.78,99.02 59.51,99.24" fill="#838d8a"/><polygon points="62.98,100.12 62.85,100.54 63.25,100.65" fill="#666e6c"/><polygon points="63.14,102.28 62.64,102.71 62.92,102.79" fill="#666e6c"/><polygon points="60.22,103.82 59.61,103.65 60.42,103.91" fill="#666e6c"/><polygon points="59.51,99.24 59.03,99.53 58.91,99.87" fill="#86908d"/><polygon points="61.61,103.74 60.92,103.85 61.40,103.86" fill="#666e6c"/><polygon points="60.71,99.11 60.94,98.88 60.69,98.87" fill="#7e8885"/><polygon points="60.71,99.11 60.69,98.87 60.43,98.91" fill="#7f8986"/><polygon points="58.28,100.92 58.22,101.50 58.45,101.98" fill="#808987"/><polygon points="58.91,99.87 59.03,99.53 58.52,100.36" fill="#858f8c"/><polygon points="62.64,102.71 62.47,103.17 62.92,102.79" fill="#666e6c"/><polygon points="61.32,99.03 61.38,99.15 61.89,99.11" fill="#767e7c"/><polygon points="60.71,99.11 61.16,98.94 60.94,98.88" fill="#7d8784"/><polygon points="62.85,100.54 63.11,101.12 63.25,100.65" fill="#666e6c"/><polygon points="60.09,99.10 60.22,98.99 59.51,99.24" fill="#838d8a"/><polygon points="61.38,99.15 62.01,99.35 61.89,99.11" fill="#767e7c"/><polygon points="60.92,103.85 60.22,103.82 60.91,103.94" fill="#666e6c"/><polygon points="62.55,99.67 62.45,100.02 62.98,100.12" fill="#666e6c"/><polygon points="59.31,103.35 58.81,103.02 59.61,103.65" fill="#68706e"/><polygon points="60.71,99.11 60.43,98.91 60.22,98.99" fill="#808a87"/><polygon points="58.45,101.98 58.22,101.50 58.55,102.54" fill="#7a8380"/><polygon points="60.71,99.11 61.32,99.03 61.16,98.94" fill="#7d8683"/><polygon points="61.77,103.46 61.61,103.74 62.18,103.51" fill="#666e6c"/><polygon points="62.47,103.17 61.77,103.46 62.18,103.51" fill="#666e6c"/><polygon points="58.55,102.54 58.81,103.02 59.31,103.35" fill="#717a77"/><polygon points="60.09,99.10 59.51,99.24 59.43,99.48" fill="#858f8c"/><polygon points="63.21,101.72 62.69,102.16 63.14,102.28" fill="#666e6c"/><polygon points="59.31,103.35 59.61,103.65 60.22,103.82" fill="#666e6c"/><polygon points="60.71,99.11 60.22,98.99 60.09,99.10" fill="#818b88"/><polygon points="59.43,99.48 59.51,99.24 58.91,99.87" fill="#86908d"/><polygon points="62.01,99.35 61.93,99.59 62.55,99.67" fill="#6e7774"/><polygon points="62.45,100.02 62.85,100.54 62.98,100.12" fill="#666e6c"/><polygon points="58.52,100.36 58.28,100.92 58.50,101.37" fill="#848e8b"/><polygon points="60.71,99.11 61.38,99.15 61.32,99.03" fill="#7d8683"/><polygon points="61.38,99.15 61.34,99.28 62.01,99.35" fill="#767f7d"/><polygon points="60.05,99.22 60.09,99.10 59.43,99.48" fill="#858f8c"/><polygon points="60.71,99.11 60.09,99.10 60.05,99.22" fill="#828b89"/><polygon points="61.93,99.59 62.45,100.02 62.55,99.67" fill="#6e7774"/><polygon points="62.69,102.16 62.64,102.71 63.14,102.28" fill="#666e6c"/><polygon points="58.50,101.37 58.28,100.92 58.45,101.98" fill="#808987"/><polygon points="60.92,103.59 60.92,103.85 61.61,103.74" fill="#666e6c"/><polygon points="60.71,99.11 61.34,99.28 61.38,99.15" fill="#7d8684"/><polygon points="58.91,99.87 58.52,100.36 58.72,100.77" fill="#86908d"/><polygon points="61.34,99.28 61.93,99.59 62.01,99.35" fill="#767f7d"/><polygon points="60.06,103.55 60.22,103.82 60.92,103.85" fill="#666e6c"/><polygon points="63.11,101.12 62.60,101.55 63.21,101.72" fill="#666e6c"/><polygon points="60.06,103.55 59.31,103.35 60.22,103.82" fill="#666e6c"/><polygon points="59.12,102.91 58.55,102.54 59.31,103.35" fill="#717a77"/><polygon points="60.71,99.11 60.05,99.22 60.11,99.35" fill="#828c89"/><polygon points="58.45,101.98 58.55,102.54 59.12,102.91" fill="#79827f"/><polygon points="59.43,99.48 58.91,99.87 59.07,100.20" fill="#87918e"/><polygon points="61.77,103.46 60.92,103.59 61.61,103.74" fill="#666e6c"/><polygon points="60.05,99.22 59.43,99.48 59.55,99.72" fill="#858f8c"/><polygon points="60.71,99.11 61.20,99.39 61.34,99.28" fill="#7e8784"/><polygon points="58.72,100.77 58.52,100.36 58.50,101.37" fill="#848e8b"/><polygon points="62.64,102.71 61.86,103.03 62.47,103.17" fill="#666e6c"/><polygon points="61.86,103.03 61.77,103.46 62.47,103.17" fill="#666e6c"/><polygon points="62.85,100.54 62.40,100.92 63.11,101.12" fill="#666e6c"/><polygon points="61.34,99.28 61.20,99.39 61.93,99.59" fill="#78827f"/><polygon points="62.60,101.55 62.69,102.16 63.21,101.72" fill="#666e6c"/><polygon points="60.71,99.11 60.11,99.35 60.26,99.44" fill="#828c89"/><polygon points="60.11,99.35 60.05,99.22 59.55,99.72" fill="#858f8c"/><polygon points="60.92,103.59 60.06,103.55 60.92,103.85" fill="#666e6c"/><polygon points="59.07,100.20 58.91,99.87 58.72,100.77" fill="#86908d"/><polygon points="60.71,99.11 60.99,99.47 61.20,99.39" fill="#7f8885"/><polygon points="59.12,102.91 59.31,103.35 60.06,103.55" fill="#6d7573"/><polygon points="59.55,99.72 59.43,99.48 59.07,100.20" fill="#87918e"/><polygon points="62.45,100.02 62.08,100.33 62.85,100.54" fill="#6a7270"/><polygon points="61.93,99.59 61.67,99.81 62.45,100.02" fill="#727a78"/><polygon points="60.71,99.11 60.26,99.44 60.48,99.50" fill="#818b88"/><polygon points="60.71,99.11 60.74,99.51 60.99,99.47" fill="#808986"/><polygon points="60.71,99.11 60.48,99.50 60.74,99.51" fill="#818a87"/><polygon points="61.20,99.39 61.67,99.81 61.93,99.59" fill="#78827f"/><polygon points="58.50,101.37 58.45,101.98 59.03,102.36" fill="#7f8886"/><polygon points="62.40,100.92 62.60,101.55 63.11,101.12" fill="#666e6c"/><polygon points="59.03,102.36 58.45,101.98 59.12,102.91" fill="#79827f"/><polygon points="61.20,99.39 60.99,99.47 61.67,99.81" fill="#7b8582"/><polygon points="60.11,99.35 59.55,99.72 59.84,99.91" fill="#858f8c"/><polygon points="60.26,99.44 60.11,99.35 59.84,99.91" fill="#858f8c"/><polygon points="61.67,99.81 62.08,100.33 62.45,100.02" fill="#727a78"/><polygon points="62.08,100.33 62.40,100.92 62.85,100.54" fill="#6a7270"/><polygon points="62.69,102.16 61.88,102.48 62.64,102.71" fill="#666e6c"/><polygon points="60.91,103.17 60.92,103.59 61.77,103.46" fill="#666e6c"/><polygon points="59.95,103.13 60.06,103.55 60.92,103.59" fill="#666e6c"/><polygon points="59.95,103.13 59.12,102.91 60.06,103.55" fill="#6d7573"/><polygon points="58.72,100.77 58.50,101.37 59.07,101.74" fill="#838d8a"/><polygon points="61.88,102.48 61.86,103.03 62.64,102.71" fill="#666e6c"/><polygon points="61.86,103.03 60.91,103.17 61.77,103.46" fill="#666e6c"/><polygon points="59.55,99.72 59.07,100.20 59.49,100.47" fill="#86908d"/><polygon points="60.99,99.47 60.74,99.51 61.26,99.97" fill="#7e8885"/><polygon points="60.48,99.50 60.26,99.44 60.27,100.02" fill="#848d8a"/><polygon points="60.99,99.47 61.26,99.97 61.67,99.81" fill="#7b8582"/><polygon points="59.07,100.20 58.72,100.77 59.23,101.10" fill="#86908d"/><polygon points="59.07,101.74 58.50,101.37 59.03,102.36" fill="#7f8886"/><polygon points="59.03,102.36 59.12,102.91 59.95,103.13" fill="#757e7b"/><polygon points="60.74,99.51 60.48,99.50 60.77,100.04" fill="#818b88"/><polygon points="59.84,99.91 59.55,99.72 59.49,100.47" fill="#86908d"/><polygon points="60.26,99.44 59.84,99.91 60.27,100.02" fill="#848d8a"/><polygon points="61.67,99.81 61.26,99.97 62.08,100.33" fill="#777f7d"/><polygon points="60.91,103.17 59.95,103.13 60.92,103.59" fill="#666e6c"/><polygon points="62.60,101.55 61.82,101.86 62.69,102.16" fill="#666e6c"/><polygon points="60.74,99.51 60.77,100.04 61.26,99.97" fill="#7e8885"/><polygon points="59.23,101.10 58.72,100.77 59.07,101.74" fill="#838d8a"/><polygon points="59.49,100.47 59.07,100.20 59.23,101.10" fill="#86908d"/><polygon points="60.48,99.50 60.27,100.02 60.77,100.04" fill="#818b88"/><polygon points="62.08,100.33 61.50,100.56 62.40,100.92" fill="#717976"/><polygon points="62.40,100.92 61.69,101.20 62.60,101.55" fill="#69716f"/><polygon points="61.82,101.86 61.88,102.48 62.69,102.16" fill="#666e6c"/><polygon points="61.26,99.97 61.50,100.56 62.08,100.33" fill="#777f7d"/><polygon points="59.89,102.59 59.03,102.36 59.95,103.13" fill="#757e7b"/><polygon points="60.89,102.63 60.91,103.17 61.86,103.03" fill="#666e6c"/><polygon points="61.88,102.48 60.89,102.63 61.86,103.03" fill="#666e6c"/><polygon points="59.07,101.74 59.03,102.36 59.89,102.59" fill="#7b8481"/><polygon points="59.89,102.59 59.95,103.13 60.91,103.17" fill="#6e7674"/><polygon points="60.27,100.02 59.84,99.91 60.10,100.63" fill="#848e8b"/><polygon points="59.84,99.91 59.49,100.47 60.10,100.63" fill="#848e8b"/><polygon points="61.26,99.97 60.77,100.04 61.50,100.56" fill="#7c8582"/><polygon points="61.69,101.20 61.82,101.86 62.60,101.55" fill="#69716f"/><polygon points="61.50,100.56 61.69,101.20 62.40,100.92" fill="#717976"/><polygon points="60.77,100.04 60.27,100.02 60.81,100.66" fill="#808a87"/><polygon points="60.89,102.63 59.89,102.59 60.91,103.17" fill="#6e7674"/><polygon points="59.23,101.10 59.07,101.74 59.90,101.96" fill="#808986"/><polygon points="59.49,100.47 59.23,101.10 59.97,101.30" fill="#838c8a"/><polygon points="60.77,100.04 60.81,100.66 61.50,100.56" fill="#7c8582"/><polygon points="60.27,100.02 60.10,100.63 60.81,100.66" fill="#808a87"/><polygon points="59.90,101.96 59.07,101.74 59.89,102.59" fill="#7b8481"/><polygon points="60.10,100.63 59.49,100.47 59.97,101.30" fill="#838c8a"/><polygon points="61.82,101.86 60.87,102.01 61.88,102.48" fill="#6c7471"/><polygon points="61.50,100.56 60.81,100.66 61.69,101.20" fill="#78807e"/><polygon points="60.87,102.01 60.89,102.63 61.88,102.48" fill="#6c7471"/><polygon points="59.97,101.30 59.23,101.10 59.90,101.96" fill="#808986"/><polygon points="59.90,101.96 59.89,102.59 60.89,102.63" fill="#747d7a"/><polygon points="61.69,101.20 60.84,101.33 61.82,101.86" fill="#727b78"/><polygon points="60.81,100.66 60.84,101.33 61.69,101.20" fill="#78807e"/><polygon points="60.81,100.66 60.10,100.63 60.84,101.33" fill="#7e8784"/><polygon points="60.87,102.01 59.90,101.96 60.89,102.63" fill="#747d7a"/><polygon points="60.84,101.33 60.87,102.01 61.82,101.86" fill="#727b78"/><polygon points="60.10,100.63 59.97,101.30 60.84,101.33" fill="#7e8784"/><polygon points="59.97,101.30 59.90,101.96 60.87,102.01" fill="#7a8380"/><polygon points="60.84,101.33 59.97,101.30 60.87,102.01" fill="#7a8380"/><polygon points="38.05,43.07 42.78,109.85 92.95,57.07" fill="#6e4d38"/><polygon points="41.97,102.63 85.30,122.14 85.54,98.58" fill="#24262b"/><polygon points="42.78,109.85 91.26,132.78 92.95,57.07" fill="#6e4d38"/><polygon points="38.43,53.00 40.10,76.43 85.87,66.68" fill="#24262b"/><polygon points="40.45,81.39 85.54,98.58 87.89,97.12" fill="#26282d"/><polygon points="41.05,52.13 38.43,53.00 88.35,65.51" fill="#26282d"/><polygon points="38.05,43.07 92.95,57.07 125.88,42.58" fill="#72503a"/><polygon points="93.33,57.85 127.81,42.52 128.20,37.72" fill="#5b3f2d"/><polygon points="58.07,74.61 58.60,74.90 58.91,75.06" fill="#666e6c"/><polygon points="62.46,72.37 62.30,72.78 62.38,73.02" fill="#666e6c"/><polygon points="85.30,122.14 87.55,120.50 87.89,97.12" fill="#1d1e22"/><polygon points="61.43,70.37 61.61,70.64 61.84,70.81" fill="#666e6c"/><polygon points="57.16,73.25 57.46,73.83 57.66,74.18" fill="#737b79"/><polygon points="60.15,69.87 60.60,69.93 60.15,69.83" fill="#78817e"/><polygon points="61.61,70.64 62.06,71.14 61.84,70.81" fill="#666e6c"/><polygon points="62.30,72.78 62.23,73.42 62.38,73.02" fill="#666e6c"/><polygon points="59.37,69.84 59.11,69.88 58.68,70.00" fill="#808a87"/><polygon points="62.00,73.99 61.52,74.31 61.61,74.45" fill="#666e6c"/><polygon points="58.51,74.84 58.07,74.61 58.91,75.06" fill="#666e6c"/><polygon points="62.34,71.73 62.19,72.13 62.46,72.37" fill="#666e6c"/><polygon points="60.62,74.91 60.39,75.11 60.82,74.97" fill="#666e6c"/><polygon points="59.91,69.82 60.15,69.87 60.15,69.83" fill="#78817e"/><polygon points="61.52,74.31 61.22,74.72 61.61,74.45" fill="#666e6c"/><polygon points="58.51,74.84 58.91,75.06 59.36,75.15" fill="#666e6c"/><polygon points="61.22,74.72 60.62,74.91 60.82,74.97" fill="#666e6c"/><polygon points="57.89,70.52 57.51,70.99 57.36,71.34" fill="#858f8c"/><polygon points="60.31,69.95 60.91,70.08 60.60,69.93" fill="#767f7c"/><polygon points="60.91,70.08 61.03,70.27 61.43,70.37" fill="#6d7573"/><polygon points="57.04,72.61 57.16,73.25 57.39,73.63" fill="#7a8380"/><polygon points="57.66,74.18 58.07,74.61 58.51,74.84" fill="#68706e"/><polygon points="60.15,69.87 60.31,69.95 60.60,69.93" fill="#767f7c"/><polygon points="61.03,70.27 61.61,70.64 61.43,70.37" fill="#6d7573"/><polygon points="59.15,69.91 59.37,69.84 58.68,70.00" fill="#808a87"/><polygon points="57.39,73.63 57.16,73.25 57.66,74.18" fill="#737b79"/><polygon points="62.19,72.13 62.30,72.78 62.46,72.37" fill="#666e6c"/><polygon points="59.89,75.00 59.88,75.17 60.39,75.11" fill="#666e6c"/><polygon points="59.15,74.97 59.36,75.15 59.88,75.17" fill="#666e6c"/><polygon points="59.15,69.91 58.68,70.00 58.40,70.18" fill="#838d8a"/><polygon points="62.06,71.14 61.92,71.49 62.34,71.73" fill="#666e6c"/><polygon points="62.23,73.42 61.70,73.77 62.00,73.99" fill="#666e6c"/><polygon points="59.15,74.97 58.51,74.84 59.36,75.15" fill="#666e6c"/><polygon points="58.40,70.18 57.89,70.52 57.77,70.80" fill="#86908d"/><polygon points="60.62,74.91 59.89,75.00 60.39,75.11" fill="#666e6c"/><polygon points="59.66,69.99 59.91,69.82 59.64,69.81" fill="#7e8885"/><polygon points="59.66,69.99 59.64,69.81 59.37,69.84" fill="#7f8986"/><polygon points="57.11,71.96 57.04,72.61 57.28,73.00" fill="#808987"/><polygon points="57.77,70.80 57.89,70.52 57.36,71.34" fill="#858f8c"/><polygon points="61.70,73.77 61.52,74.31 62.00,73.99" fill="#666e6c"/><polygon points="60.31,69.95 60.37,70.05 60.91,70.08" fill="#767e7c"/><polygon points="59.66,69.99 60.15,69.87 59.91,69.82" fill="#7d8784"/><polygon points="61.92,71.49 62.19,72.13 62.34,71.73" fill="#666e6c"/><polygon points="59.01,70.00 59.15,69.91 58.40,70.18" fill="#838d8a"/><polygon points="60.37,70.05 61.03,70.27 60.91,70.08" fill="#767e7c"/><polygon points="59.89,75.00 59.15,74.97 59.88,75.17" fill="#666e6c"/><polygon points="61.61,70.64 61.49,70.93 62.06,71.14" fill="#666e6c"/><polygon points="58.19,74.45 57.66,74.18 58.51,74.84" fill="#68706e"/><polygon points="59.66,69.99 59.37,69.84 59.15,69.91" fill="#808a87"/><polygon points="57.28,73.00 57.04,72.61 57.39,73.63" fill="#7a8380"/><polygon points="59.66,69.99 60.31,69.95 60.15,69.87" fill="#7d8683"/><polygon points="60.78,74.54 60.62,74.91 61.22,74.72" fill="#666e6c"/><polygon points="61.52,74.31 60.78,74.54 61.22,74.72" fill="#666e6c"/><polygon points="57.39,73.63 57.66,74.18 58.19,74.45" fill="#717a77"/><polygon points="59.01,70.00 58.40,70.18 58.32,70.38" fill="#858f8c"/><polygon points="62.30,72.78 61.75,73.15 62.23,73.42" fill="#666e6c"/><polygon points="58.19,74.45 58.51,74.84 59.15,74.97" fill="#666e6c"/><polygon points="59.66,69.99 59.15,69.91 59.01,70.00" fill="#818b88"/><polygon points="58.32,70.38 58.40,70.18 57.77,70.80" fill="#86908d"/><polygon points="61.03,70.27 60.95,70.47 61.61,70.64" fill="#6e7774"/><polygon points="61.49,70.93 61.92,71.49 62.06,71.14" fill="#666e6c"/><polygon points="57.36,71.34 57.11,71.96 57.34,72.33" fill="#848e8b"/><polygon points="59.66,69.99 60.37,70.05 60.31,69.95" fill="#7d8683"/><polygon points="60.37,70.05 60.33,70.15 61.03,70.27" fill="#767f7d"/><polygon points="58.96,70.10 59.01,70.00 58.32,70.38" fill="#858f8c"/><polygon points="59.66,69.99 59.01,70.00 58.96,70.10" fill="#828b89"/><polygon points="60.95,70.47 61.49,70.93 61.61,70.64" fill="#6e7774"/><polygon points="61.75,73.15 61.70,73.77 62.23,73.42" fill="#666e6c"/><polygon points="57.34,72.33 57.11,71.96 57.28,73.00" fill="#808987"/><polygon points="59.88,74.65 59.89,75.00 60.62,74.91" fill="#666e6c"/><polygon points="59.66,69.99 60.33,70.15 60.37,70.05" fill="#7d8684"/><polygon points="57.77,70.80 57.36,71.34 57.56,71.68" fill="#86908d"/><polygon points="60.33,70.15 60.95,70.47 61.03,70.27" fill="#767f7d"/><polygon points="58.97,74.62 59.15,74.97 59.89,75.00" fill="#666e6c"/><polygon points="62.19,72.13 61.66,72.48 62.30,72.78" fill="#666e6c"/><polygon points="58.97,74.62 58.19,74.45 59.15,74.97" fill="#666e6c"/><polygon points="57.98,73.93 57.39,73.63 58.19,74.45" fill="#717a77"/><polygon points="59.66,69.99 58.96,70.10 59.03,70.20" fill="#828c89"/><polygon points="57.28,73.00 57.39,73.63 57.98,73.93" fill="#79827f"/><polygon points="58.32,70.38 57.77,70.80 57.94,71.08" fill="#87918e"/><polygon points="60.78,74.54 59.88,74.65 60.62,74.91" fill="#666e6c"/><polygon points="58.96,70.10 58.32,70.38 58.44,70.57" fill="#858f8c"/><polygon points="59.66,69.99 60.18,70.24 60.33,70.15" fill="#7e8784"/><polygon points="57.56,71.68 57.36,71.34 57.34,72.33" fill="#848e8b"/><polygon points="61.70,73.77 60.87,74.03 61.52,74.31" fill="#666e6c"/><polygon points="60.87,74.03 60.78,74.54 61.52,74.31" fill="#666e6c"/><polygon points="61.92,71.49 61.44,71.81 62.19,72.13" fill="#666e6c"/><polygon points="60.33,70.15 60.18,70.24 60.95,70.47" fill="#78827f"/><polygon points="61.66,72.48 61.75,73.15 62.30,72.78" fill="#666e6c"/><polygon points="59.66,69.99 59.03,70.20 59.19,70.28" fill="#828c89"/><polygon points="59.03,70.20 58.96,70.10 58.44,70.57" fill="#858f8c"/><polygon points="59.88,74.65 58.97,74.62 59.89,75.00" fill="#666e6c"/><polygon points="57.94,71.08 57.77,70.80 57.56,71.68" fill="#86908d"/><polygon points="59.66,69.99 59.96,70.31 60.18,70.24" fill="#7f8885"/><polygon points="92.95,57.07 91.26,132.78 125.88,42.58" fill="#5b3f2d"/><polygon points="57.98,73.93 58.19,74.45 58.97,74.62" fill="#6d7573"/><polygon points="58.44,70.57 58.32,70.38 57.94,71.08" fill="#87918e"/><polygon points="61.49,70.93 61.10,71.18 61.92,71.49" fill="#6a7270"/><polygon points="60.95,70.47 60.67,70.65 61.49,70.93" fill="#727a78"/><polygon points="59.66,69.99 59.19,70.28 59.42,70.33" fill="#818b88"/><polygon points="59.66,69.99 59.69,70.34 59.96,70.31" fill="#808986"/><polygon points="59.66,69.99 59.42,70.33 59.69,70.34" fill="#818a87"/><polygon points="60.18,70.24 60.67,70.65 60.95,70.47" fill="#78827f"/><polygon points="57.34,72.33 57.28,73.00 57.89,73.31" fill="#7f8886"/><polygon points="61.44,71.81 61.66,72.48 62.19,72.13" fill="#666e6c"/><polygon points="57.89,73.31 57.28,73.00 57.98,73.93" fill="#79827f"/><polygon points="60.18,70.24 59.96,70.31 60.67,70.65" fill="#7b8582"/><polygon points="59.03,70.20 58.44,70.57 58.75,70.73" fill="#858f8c"/><polygon points="59.19,70.28 59.03,70.20 58.75,70.73" fill="#858f8c"/><polygon points="60.67,70.65 61.10,71.18 61.49,70.93" fill="#727a78"/><polygon points="61.10,71.18 61.44,71.81 61.92,71.49" fill="#6a7270"/><polygon points="61.75,73.15 60.89,73.42 61.70,73.77" fill="#666e6c"/><polygon points="59.87,74.15 59.88,74.65 60.78,74.54" fill="#666e6c"/><polygon points="58.86,74.12 58.97,74.62 59.88,74.65" fill="#666e6c"/><polygon points="58.86,74.12 57.98,73.93 58.97,74.62" fill="#6d7573"/><polygon points="57.56,71.68 57.34,72.33 57.93,72.64" fill="#838d8a"/><polygon points="60.89,73.42 60.87,74.03 61.70,73.77" fill="#666e6c"/><polygon points="60.87,74.03 59.87,74.15 60.78,74.54" fill="#666e6c"/><polygon points="58.44,70.57 57.94,71.08 58.37,71.30" fill="#86908d"/><polygon points="59.96,70.31 59.69,70.34 60.24,70.78" fill="#7e8885"/><polygon points="59.42,70.33 59.19,70.28 59.20,70.82" fill="#848d8a"/><polygon points="59.96,70.31 60.24,70.78 60.67,70.65" fill="#7b8582"/><polygon points="57.94,71.08 57.56,71.68 58.10,71.95" fill="#86908d"/><polygon points="57.93,72.64 57.34,72.33 57.89,73.31" fill="#7f8886"/><polygon points="57.89,73.31 57.98,73.93 58.86,74.12" fill="#757e7b"/><polygon points="59.69,70.34 59.42,70.33 59.72,70.84" fill="#818b88"/><polygon points="58.75,70.73 58.44,70.57 58.37,71.30" fill="#86908d"/><polygon points="59.19,70.28 58.75,70.73 59.20,70.82" fill="#848d8a"/><polygon points="60.67,70.65 60.24,70.78 61.10,71.18" fill="#777f7d"/><polygon points="59.87,74.15 58.86,74.12 59.88,74.65" fill="#666e6c"/><polygon points="61.66,72.48 60.83,72.73 61.75,73.15" fill="#666e6c"/><polygon points="59.69,70.34 59.72,70.84 60.24,70.78" fill="#7e8885"/><polygon points="58.10,71.95 57.56,71.68 57.93,72.64" fill="#838d8a"/><polygon points="58.37,71.30 57.94,71.08 58.10,71.95" fill="#86908d"/><polygon points="59.42,70.33 59.20,70.82 59.72,70.84" fill="#818b88"/><polygon points="35.68,38.30 93.46,52.21 128.20,37.72" fill="#72503a"/><polygon points="35.68,38.30 36.03,43.13 93.46,52.21" fill="#6e4d38"/><polygon points="61.10,71.18 60.49,71.37 61.44,71.81" fill="#717976"/><polygon points="61.44,71.81 60.69,72.04 61.66,72.48" fill="#69716f"/><polygon points="60.83,72.73 60.89,73.42 61.75,73.15" fill="#666e6c"/><polygon points="60.24,70.78 60.49,71.37 61.10,71.18" fill="#777f7d"/><polygon points="58.80,73.51 57.89,73.31 58.86,74.12" fill="#757e7b"/><polygon points="59.85,73.54 59.87,74.15 60.87,74.03" fill="#666e6c"/><polygon points="60.89,73.42 59.85,73.54 60.87,74.03" fill="#666e6c"/><polygon points="57.93,72.64 57.89,73.31 58.80,73.51" fill="#7b8481"/><polygon points="58.80,73.51 58.86,74.12 59.87,74.15" fill="#6e7674"/><polygon points="59.20,70.82 58.75,70.73 59.01,71.43" fill="#848e8b"/><polygon points="58.75,70.73 58.37,71.30 59.01,71.43" fill="#848e8b"/><polygon points="60.24,70.78 59.72,70.84 60.49,71.37" fill="#7c8582"/><polygon points="60.69,72.04 60.83,72.73 61.66,72.48" fill="#69716f"/><polygon points="60.49,71.37 60.69,72.04 61.44,71.81" fill="#717976"/><polygon points="59.72,70.84 59.20,70.82 59.76,71.46" fill="#808a87"/><polygon points="59.85,73.54 58.80,73.51 59.87,74.15" fill="#6e7674"/><polygon points="58.10,71.95 57.93,72.64 58.81,72.82" fill="#808986"/><polygon points="58.37,71.30 58.10,71.95 58.88,72.11" fill="#838c8a"/><polygon points="59.72,70.84 59.76,71.46 60.49,71.37" fill="#7c8582"/><polygon points="59.20,70.82 59.01,71.43 59.76,71.46" fill="#808a87"/><polygon points="58.81,72.82 57.93,72.64 58.80,73.51" fill="#7b8481"/><polygon points="59.01,71.43 58.37,71.30 58.88,72.11" fill="#838c8a"/><polygon points="60.83,72.73 59.82,72.86 60.89,73.42" fill="#6c7471"/><polygon points="60.49,71.37 59.76,71.46 60.69,72.04" fill="#78807e"/><polygon points="59.82,72.86 59.85,73.54 60.89,73.42" fill="#6c7471"/><polygon points="58.88,72.11 58.10,71.95 58.81,72.82" fill="#808986"/><polygon points="58.81,72.82 58.80,73.51 59.85,73.54" fill="#747d7a"/><polygon points="60.69,72.04 59.79,72.14 60.83,72.73" fill="#727b78"/><polygon points="59.76,71.46 59.79,72.14 60.69,72.04" fill="#78807e"/><polygon points="59.76,71.46 59.01,71.43 59.79,72.14" fill="#7e8784"/><polygon points="59.82,72.86 58.81,72.82 59.85,73.54" fill="#747d7a"/><polygon points="59.79,72.14 59.82,72.86 60.83,72.73" fill="#727b78"/><polygon points="59.01,71.43 58.88,72.11 59.79,72.14" fill="#7e8784"/><polygon points="58.88,72.11 58.81,72.82 59.82,72.86" fill="#7a8380"/><polygon points="59.79,72.14 58.88,72.11 59.82,72.86" fill="#7a8380"/><polygon points="85.54,98.58 85.30,122.14 87.89,97.12" fill="#1d1e22"/><polygon points="40.10,76.43 85.60,93.05 85.87,66.68" fill="#24262b"/><polygon points="38.43,53.00 85.87,66.68 88.35,65.51" fill="#26282d"/><polygon points="85.60,93.05 87.97,91.64 88.35,65.51" fill="#1d1e22"/><polygon points="93.46,52.21 93.33,57.85 128.20,37.72" fill="#5b3f2d"/><polygon points="36.03,43.13 93.33,57.85 93.46,52.21" fill="#6e4d38"/><polygon points="85.87,66.68 85.60,93.05 88.35,65.51" fill="#1d1e22"/></svg>
