<svg xmlns="http://www.w3.org/2000/svg" viewBox="0 0 160 154"><rect width="160" height="154" fill="#20272b"/><ellipse cx="80" cy="128" rx="51" ry="9" fill="#141b20"/><polygon points="69.22,106.34 72.03,104.63 71.86,93.78" fill="#5b3f2d"/><polygon points="65.97,104.97 69.22,106.34 69.00,95.39" fill="#6e4d38"/><polygon points="68.57,92.52 65.69,94.10 71.86,93.78" fill="#72503a"/><polygon points="65.69,94.10 65.97,104.97 69.00,95.39" fill="#6e4d38"/><polygon points="69.00,95.39 69.22,106.34 71.86,93.78" fill="#5b3f2d"/><polygon points="65.69,94.10 69.00,95.39 71.86,93.78" fill="#72503a"/><polygon points="47.75,102.30 69.56,90.48 68.34,26.90" fill="#5b3f2d"/><polygon points="56.35,114.20 59.48,112.29 59.04,100.99" fill="#5b3f2d"/><polygon points="53.06,112.67 56.35,114.20 55.83,102.79" fill="#6e4d38"/><polygon points="55.69,99.58 52.47,101.34 59.04,100.99" fill="#72503a"/><polygon points="52.47,101.34 53.06,112.67 55.83,102.79" fill="#6e4d38"/><polygon points="55.83,102.79 56.35,114.20 59.04,100.99" fill="#5b3f2d"/><polygon points="52.47,101.34 55.83,102.79 59.04,100.99" fill="#72503a"/><polygon points="52.09,88.43 47.29,90.81 61.97,92.28" fill="#26282d"/><polygon points="51.51,98.59 50.54,99.11 53.48,99.42" fill="#808986"/><polygon points="47.29,90.81 47.86,100.36 57.21,94.81" fill="#24262b"/><polygon points="57.62,104.59 62.29,101.91 61.97,92.28" fill="#1d1e22"/><polygon points="50.54,99.11 50.59,100.01 52.51,99.95" fill="#7b8481"/><polygon points="52.56,100.85 53.52,100.33 53.48,99.42" fill="#666e6c"/><polygon points="50.54,99.11 52.51,99.95 53.48,99.42" fill="#808986"/><polygon points="50.59,100.01 52.56,100.85 52.51,99.95" fill="#7b8481"/><polygon points="105.63,121.78 108.24,119.66 108.88,107.94" fill="#5b3f2d"/><polygon points="47.86,100.36 57.62,104.59 57.21,94.81" fill="#24262b"/><polygon points="52.51,99.95 52.56,100.85 53.48,99.42" fill="#666e6c"/><polygon points="50.55,94.06 50.07,94.31 54.01,95.48" fill="#bda983"/><polygon points="50.07,94.31 50.18,96.44 53.53,95.74" fill="#b6a37e"/><polygon points="50.18,96.44 53.63,97.88 53.53,95.74" fill="#b6a37e"/><polygon points="101.63,120.08 105.63,121.78 106.22,109.94" fill="#6e4d38"/><polygon points="47.29,90.81 57.21,94.81 61.97,92.28" fill="#26282d"/><polygon points="50.07,94.31 53.53,95.74 54.01,95.48" fill="#bda983"/><polygon points="53.63,97.88 54.12,97.62 54.01,95.48" fill="#998869"/><polygon points="104.81,106.38 102.12,108.33 108.88,107.94" fill="#72503a"/><polygon points="51.57,78.07 46.66,80.28 61.62,81.65" fill="#26282d"/><polygon points="53.53,95.74 53.63,97.88 54.01,95.48" fill="#998869"/><polygon points="67.00,27.25 68.36,91.13 116.61,36.36" fill="#6e4d38"/><polygon points="102.12,108.33 101.63,120.08 106.22,109.94" fill="#6e4d38"/><polygon points="46.35,101.68 47.75,102.30 43.58,33.34" fill="#6e4d38"/><polygon points="57.21,94.81 57.62,104.59 61.97,92.28" fill="#1d1e22"/><polygon points="106.22,109.94 105.63,121.78 108.88,107.94" fill="#5b3f2d"/><polygon points="68.36,91.13 112.25,107.74 116.61,36.36" fill="#6e4d38"/><polygon points="50.96,88.20 49.97,88.69 52.96,88.98" fill="#808986"/><polygon points="46.66,80.28 47.25,90.20 56.76,84.02" fill="#24262b"/><polygon points="102.12,108.33 106.22,109.94 108.88,107.94" fill="#72503a"/><polygon points="57.18,94.19 61.95,91.66 61.62,81.65" fill="#1d1e22"/><polygon points="43.58,33.34 47.75,102.30 68.34,26.90" fill="#5b3f2d"/><polygon points="49.97,88.69 50.02,89.63 51.97,89.48" fill="#7b8481"/><polygon points="52.02,90.42 53.01,89.92 52.96,88.98" fill="#666e6c"/><polygon points="49.97,88.69 51.97,89.48 52.96,88.98" fill="#808986"/><polygon points="50.02,89.63 52.02,90.42 51.97,89.48" fill="#7b8481"/><polygon points="66.82,26.62 42.02,33.00 68.34,26.90" fill="#72503a"/><polygon points="47.25,90.20 57.18,94.19 56.76,84.02" fill="#24262b"/><polygon points="51.97,89.48 52.02,90.42 52.96,88.98" fill="#666e6c"/><polygon points="49.98,83.53 49.48,83.76 53.50,84.85" fill="#bda983"/><polygon points="49.48,83.76 49.60,85.97 53.01,85.09" fill="#b6a37e"/><polygon points="62.48,92.48 57.72,95.02 73.04,96.59" fill="#26282d"/><polygon points="49.60,85.97 53.11,87.32 53.01,85.09" fill="#b6a37e"/><polygon points="46.66,80.28 56.76,84.02 61.62,81.65" fill="#26282d"/><polygon points="49.48,83.76 53.01,85.09 53.50,84.85" fill="#bda983"/><polygon points="53.11,87.32 53.61,87.08 53.50,84.85" fill="#998869"/><polygon points="51.02,67.30 46.00,69.34 61.25,70.60" fill="#26282d"/><polygon points="53.01,85.09 53.11,87.32 53.50,84.85" fill="#998869"/><polygon points="62.10,103.08 61.14,103.63 64.20,103.96" fill="#808986"/><polygon points="56.76,84.02 57.18,94.19 61.62,81.65" fill="#1d1e22"/><polygon points="57.72,95.02 58.13,104.81 68.35,99.30" fill="#24262b"/><polygon points="68.56,109.34 73.17,106.47 73.04,96.59" fill="#1d1e22"/><polygon points="61.14,103.63 61.18,104.55 63.25,104.53" fill="#7b8481"/><polygon points="63.28,105.45 64.23,104.89 64.20,103.96" fill="#666e6c"/><polygon points="61.14,103.63 63.25,104.53 64.20,103.96" fill="#808986"/><polygon points="61.18,104.55 63.28,105.45 63.25,104.53" fill="#7b8481"/><polygon points="50.39,77.41 49.38,77.86 52.42,78.13" fill="#808986"/><polygon points="58.13,104.81 68.56,109.34 68.35,99.30" fill="#24262b"/><polygon points="63.25,104.53 63.28,105.45 64.20,103.96" fill="#666e6c"/><polygon points="46.00,69.34 46.62,79.65 56.28,72.78" fill="#24262b"/><polygon points="61.17,98.41 60.69,98.68 64.87,99.93" fill="#bda983"/><polygon points="60.69,98.68 60.77,100.86 64.39,100.21" fill="#b6a37e"/><polygon points="56.73,83.37 61.60,81.01 61.25,70.60" fill="#1d1e22"/><polygon points="49.38,77.86 49.43,78.83 51.41,78.59" fill="#7b8481"/><polygon points="51.46,79.57 52.47,79.11 52.42,78.13" fill="#666e6c"/><polygon points="49.38,77.86 51.41,78.59 52.42,78.13" fill="#808986"/><polygon points="49.43,78.83 51.46,79.57 51.41,78.59" fill="#7b8481"/><polygon points="68.34,26.90 67.00,27.25 117.83,35.90" fill="#72503a"/><polygon points="60.77,100.86 64.46,102.40 64.39,100.21" fill="#b6a37e"/><polygon points="46.62,79.65 56.73,83.37 56.28,72.78" fill="#24262b"/><polygon points="51.41,78.59 51.46,79.57 52.42,78.13" fill="#666e6c"/><polygon points="57.72,95.02 68.35,99.30 73.04,96.59" fill="#26282d"/><polygon points="60.69,98.68 64.39,100.21 64.87,99.93" fill="#bda983"/><polygon points="64.46,102.40 64.94,102.13 64.87,99.93" fill="#998869"/><polygon points="49.39,72.58 48.88,72.79 52.97,73.80" fill="#bda983"/><polygon points="48.88,72.79 49.00,75.09 52.46,74.02" fill="#b6a37e"/><polygon points="62.14,81.84 57.28,84.21 72.90,85.68" fill="#26282d"/><polygon points="64.39,100.21 64.46,102.40 64.87,99.93" fill="#998869"/><polygon points="49.00,75.09 52.58,76.34 52.46,74.02" fill="#b6a37e"/><polygon points="68.35,99.30 68.56,109.34 73.04,96.59" fill="#1d1e22"/><polygon points="46.00,69.34 56.28,72.78 61.25,70.60" fill="#26282d"/><polygon points="48.88,72.79 52.46,74.02 52.97,73.80" fill="#bda983"/><polygon points="52.58,76.34 53.08,76.11 52.97,73.80" fill="#998869"/><polygon points="50.45,56.11 45.32,57.96 60.87,59.10" fill="#26282d"/><polygon points="112.25,107.74 113.35,106.91 117.83,35.90" fill="#5b3f2d"/><polygon points="52.46,74.02 52.58,76.34 52.97,73.80" fill="#998869"/><polygon points="42.02,33.00 46.35,101.68 43.58,33.34" fill="#6e4d38"/><polygon points="61.74,92.41 60.77,92.94 63.88,93.25" fill="#808986"/><polygon points="56.28,72.78 56.73,83.37 61.25,70.60" fill="#1d1e22"/><polygon points="57.28,84.21 57.70,94.39 68.10,88.21" fill="#24262b"/><polygon points="68.33,98.66 73.03,95.96 72.90,85.68" fill="#1d1e22"/><polygon points="60.77,92.94 60.80,93.90 62.91,93.78" fill="#7b8481"/><polygon points="62.94,94.74 63.91,94.21 63.88,93.25" fill="#666e6c"/><polygon points="60.77,92.94 62.91,93.78 63.88,93.25" fill="#808986"/><polygon points="60.80,93.90 62.94,94.74 62.91,93.78" fill="#7b8481"/><polygon points="49.79,66.18 48.76,66.59 51.86,66.84" fill="#808986"/><polygon points="62.91,93.78 62.94,94.74 63.88,93.25" fill="#666e6c"/><polygon points="57.70,94.39 68.33,98.66 68.10,88.21" fill="#24262b"/><polygon points="45.32,57.96 45.96,68.68 55.79,61.08" fill="#24262b"/><polygon points="42.02,33.00 43.58,33.34 68.34,26.90" fill="#72503a"/><polygon points="60.79,87.60 60.30,87.85 64.57,89.02" fill="#bda983"/><polygon points="60.30,87.85 60.38,90.12 64.08,89.28" fill="#b6a37e"/><polygon points="56.26,72.11 61.23,69.94 60.87,59.10" fill="#1d1e22"/><polygon points="48.76,66.59 48.82,67.60 50.83,67.26" fill="#7b8481"/><polygon points="73.59,96.80 68.90,99.53 84.90,101.21" fill="#26282d"/><polygon points="50.89,68.28 51.91,67.85 51.86,66.84" fill="#666e6c"/><polygon points="48.76,66.59 50.83,67.26 51.86,66.84" fill="#808986"/><polygon points="48.82,67.60 50.89,68.28 50.83,67.26" fill="#7b8481"/><polygon points="60.38,90.12 64.14,91.56 64.08,89.28" fill="#b6a37e"/><polygon points="50.83,67.26 50.89,68.28 51.86,66.84" fill="#666e6c"/><polygon points="45.96,68.68 56.26,72.11 55.79,61.08" fill="#24262b"/><polygon points="57.28,84.21 68.10,88.21 72.90,85.68" fill="#26282d"/><polygon points="60.30,87.85 64.08,89.28 64.57,89.02" fill="#bda983"/><polygon points="93.54,131.55 96.50,129.16 96.89,116.92" fill="#5b3f2d"/><polygon points="64.14,91.56 64.63,91.30 64.57,89.02" fill="#998869"/><polygon points="48.77,61.18 48.25,61.38 52.42,62.30" fill="#bda983"/><polygon points="48.25,61.38 48.38,63.77 51.90,62.50" fill="#b6a37e"/><polygon points="61.78,70.77 56.82,72.96 72.75,74.31" fill="#26282d"/><polygon points="64.08,89.28 64.14,91.56 64.57,89.02" fill="#998869"/><polygon points="48.38,63.77 52.02,64.91 51.90,62.50" fill="#b6a37e"/><polygon points="73.44,107.87 72.50,108.47 75.69,108.83" fill="#808986"/><polygon points="68.10,88.21 68.33,98.66 72.90,85.68" fill="#1d1e22"/><polygon points="68.90,99.53 69.10,109.57 80.29,104.13" fill="#24262b"/><polygon points="45.32,57.96 55.79,61.08 60.87,59.10" fill="#26282d"/><polygon points="48.25,61.38 51.90,62.50 52.42,62.30" fill="#bda983"/><polygon points="52.02,64.91 52.53,64.70 52.42,62.30" fill="#998869"/><polygon points="80.29,114.43 84.81,111.36 84.90,101.21" fill="#1d1e22"/><polygon points="72.50,108.47 72.51,109.42 74.75,109.43" fill="#7b8481"/><polygon points="89.43,129.63 93.54,131.55 93.87,119.18" fill="#6e4d38"/><polygon points="49.85,44.48 44.61,46.11 60.47,47.13" fill="#26282d"/><polygon points="74.76,110.38 75.70,109.78 75.69,108.83" fill="#666e6c"/><polygon points="72.50,108.47 74.75,109.43 75.69,108.83" fill="#808986"/><polygon points="72.51,109.42 74.76,110.38 74.75,109.43" fill="#7b8481"/><polygon points="51.90,62.50 52.02,64.91 52.42,62.30" fill="#998869"/><polygon points="92.71,115.15 89.66,117.36 96.89,116.92" fill="#72503a"/><polygon points="61.37,81.32 60.37,81.80 63.55,82.09" fill="#808986"/><polygon points="74.75,109.43 74.76,110.38 75.69,108.83" fill="#666e6c"/><polygon points="69.10,109.57 80.29,114.43 80.29,104.13" fill="#24262b"/><polygon points="55.79,61.08 56.26,72.11 60.87,59.10" fill="#1d1e22"/><polygon points="56.82,72.96 57.25,83.56 67.85,76.65" fill="#24262b"/><polygon points="89.66,117.36 89.43,129.63 93.87,119.18" fill="#6e4d38"/><polygon points="72.54,103.08 72.07,103.36 76.52,104.70" fill="#bda983"/><polygon points="72.07,103.36 72.10,105.60 76.04,105.00" fill="#b6a37e"/><polygon points="66.61,23.42 39.15,30.10 122.81,33.09" fill="#72503a"/><polygon points="68.09,87.55 72.89,85.02 72.75,74.31" fill="#1d1e22"/><polygon points="60.37,81.80 60.41,82.80 62.56,82.59" fill="#7b8481"/><polygon points="62.59,83.59 63.58,83.10 63.55,82.09" fill="#666e6c"/><polygon points="60.37,81.80 62.56,82.59 63.55,82.09" fill="#808986"/><polygon points="60.41,82.80 62.59,83.59 62.56,82.59" fill="#7b8481"/><polygon points="93.87,119.18 93.54,131.55 96.89,116.92" fill="#5b3f2d"/><polygon points="72.10,105.60 76.06,107.25 76.04,105.00" fill="#b6a37e"/><polygon points="49.17,54.48 48.12,54.85 51.28,55.08" fill="#808986"/><polygon points="62.56,82.59 62.59,83.59 63.55,82.09" fill="#666e6c"/><polygon points="57.25,83.56 68.09,87.55 67.85,76.65" fill="#24262b"/><polygon points="68.90,99.53 80.29,104.13 84.90,101.21" fill="#26282d"/><polygon points="44.61,46.11 45.28,57.28 55.28,48.88" fill="#24262b"/><polygon points="72.07,103.36 76.04,105.00 76.52,104.70" fill="#bda983"/><polygon points="76.06,107.25 76.53,106.96 76.52,104.70" fill="#998869"/><polygon points="60.40,76.34 59.89,76.57 64.25,77.65" fill="#bda983"/><polygon points="59.89,76.57 59.98,78.93 63.74,77.89" fill="#b6a37e"/><polygon points="55.76,60.38 60.85,58.41 60.47,47.13" fill="#1d1e22"/><polygon points="48.12,54.85 48.17,55.91 50.23,55.46" fill="#7b8481"/><polygon points="73.46,85.88 68.67,88.42 85.01,90.00" fill="#26282d"/><polygon points="89.66,117.36 93.87,119.18 96.89,116.92" fill="#72503a"/><polygon points="50.28,56.52 51.34,56.14 51.28,55.08" fill="#666e6c"/><polygon points="76.04,105.00 76.06,107.25 76.52,104.70" fill="#998869"/><polygon points="48.12,54.85 50.23,55.46 51.28,55.08" fill="#808986"/><polygon points="48.17,55.91 50.28,56.52 50.23,55.46" fill="#7b8481"/><polygon points="59.98,78.93 63.81,80.27 63.74,77.89" fill="#b6a37e"/><polygon points="80.29,104.13 80.29,114.43 84.90,101.21" fill="#1d1e22"/><polygon points="50.23,55.46 50.28,56.52 51.28,55.08" fill="#666e6c"/><polygon points="45.28,57.28 55.76,60.38 55.28,48.88" fill="#24262b"/><polygon points="56.82,72.96 67.85,76.65 72.75,74.31" fill="#26282d"/><polygon points="59.89,76.57 63.74,77.89 64.25,77.65" fill="#bda983"/><polygon points="63.81,80.27 64.31,80.03 64.25,77.65" fill="#998869"/><polygon points="48.12,49.32 47.59,49.49 51.84,50.31" fill="#bda983"/><polygon points="47.59,49.49 47.73,51.98 51.31,50.49" fill="#b6a37e"/><polygon points="61.41,59.26 56.33,61.24 72.60,62.47" fill="#26282d"/><polygon points="63.74,77.89 63.81,80.27 64.25,77.65" fill="#998869"/><polygon points="47.73,51.98 51.43,53.00 51.31,50.49" fill="#b6a37e"/><polygon points="73.31,96.93 72.34,97.49 75.60,97.82" fill="#808986"/><polygon points="67.85,76.65 68.09,87.55 72.75,74.31" fill="#1d1e22"/><polygon points="68.67,88.42 68.88,98.89 80.30,92.72" fill="#24262b"/><polygon points="44.61,46.11 55.28,48.88 60.47,47.13" fill="#26282d"/><polygon points="95.01,123.12 115.13,107.57 119.87,36.27" fill="#5b3f2d"/><polygon points="47.59,49.49 51.31,50.49 51.84,50.31" fill="#bda983"/><polygon points="51.43,53.00 51.96,52.82 51.84,50.31" fill="#998869"/><polygon points="80.30,103.47 84.91,100.57 85.01,90.00" fill="#1d1e22"/><polygon points="72.34,97.49 72.36,98.47 74.64,98.39" fill="#7b8481"/><polygon points="67.00,27.25 116.61,36.36 117.83,35.90" fill="#72503a"/><polygon points="49.24,32.36 43.87,33.77 60.06,34.64" fill="#26282d"/><polygon points="74.65,99.38 75.61,98.81 75.60,97.82" fill="#666e6c"/><polygon points="72.34,97.49 74.64,98.39 75.60,97.82" fill="#808986"/><polygon points="72.36,98.47 74.65,99.38 74.64,98.39" fill="#7b8481"/><polygon points="51.31,50.49 51.43,53.00 51.84,50.31" fill="#998869"/><polygon points="60.98,69.76 59.96,70.20 63.21,70.47" fill="#808986"/><polygon points="74.64,98.39 74.65,99.38 75.60,97.82" fill="#666e6c"/><polygon points="68.88,98.89 80.30,103.47 80.30,92.72" fill="#24262b"/><polygon points="55.28,48.88 55.76,60.38 60.47,47.13" fill="#1d1e22"/><polygon points="56.33,61.24 56.79,72.28 67.59,64.60" fill="#24262b"/><polygon points="72.39,91.96 71.90,92.23 76.44,93.49" fill="#bda983"/><polygon points="71.90,92.23 71.94,94.56 75.96,93.77" fill="#b6a37e"/><polygon points="116.61,36.36 112.25,107.74 117.83,35.90" fill="#5b3f2d"/><polygon points="67.84,75.96 72.74,73.63 72.60,62.47" fill="#1d1e22"/><polygon points="59.96,70.20 60.00,71.25 62.19,70.92" fill="#7b8481"/><polygon points="85.49,101.44 80.89,104.36 97.65,106.18" fill="#26282d"/><polygon points="62.22,71.97 63.24,71.52 63.21,70.47" fill="#666e6c"/><polygon points="59.96,70.20 62.19,70.92 63.21,70.47" fill="#808986"/><polygon points="60.00,71.25 62.22,71.97 62.19,70.92" fill="#7b8481"/><polygon points="71.94,94.56 75.98,96.12 75.96,93.77" fill="#b6a37e"/><polygon points="48.53,42.30 47.45,42.63 50.68,42.82" fill="#808986"/><polygon points="62.19,70.92 62.22,71.97 63.21,70.47" fill="#666e6c"/><polygon points="56.79,72.28 67.84,75.96 67.59,64.60" fill="#24262b"/><polygon points="68.67,88.42 80.30,92.72 85.01,90.00" fill="#26282d"/><polygon points="43.87,33.77 44.57,45.40 54.74,36.15" fill="#24262b"/><polygon points="71.90,92.23 75.96,93.77 76.44,93.49" fill="#bda983"/><polygon points="75.98,96.12 76.46,95.84 76.44,93.49" fill="#998869"/><polygon points="59.99,64.60 59.47,64.82 63.91,65.80" fill="#bda983"/><polygon points="59.47,64.82 59.56,67.28 63.40,66.02" fill="#b6a37e"/><polygon points="55.25,48.15 60.45,46.41 60.06,34.64" fill="#1d1e22"/><polygon points="47.45,42.63 47.51,43.73 49.60,43.15" fill="#7b8481"/><polygon points="73.32,74.50 68.43,76.84 85.11,78.30" fill="#26282d"/><polygon points="49.65,44.26 50.73,43.93 50.68,42.82" fill="#666e6c"/><polygon points="75.96,93.77 75.98,96.12 76.44,93.49" fill="#998869"/><polygon points="47.45,42.63 49.60,43.15 50.68,42.82" fill="#808986"/><polygon points="47.51,43.73 49.65,44.26 49.60,43.15" fill="#7b8481"/><polygon points="59.56,67.28 63.47,68.50 63.40,66.02" fill="#b6a37e"/><polygon points="85.62,113.03 84.69,113.67 88.04,114.05" fill="#808986"/><polygon points="80.30,92.72 80.30,103.47 85.01,90.00" fill="#1d1e22"/><polygon points="80.89,104.36 80.87,114.68 93.15,109.32" fill="#24262b"/><polygon points="49.60,43.15 49.65,44.26 50.68,42.82" fill="#666e6c"/><polygon points="44.57,45.40 55.25,48.15 54.74,36.15" fill="#24262b"/><polygon points="56.33,61.24 67.59,64.60 72.60,62.47" fill="#26282d"/><polygon points="59.47,64.82 63.40,66.02 63.91,65.80" fill="#bda983"/><polygon points="63.47,68.50 63.98,68.28 63.91,65.80" fill="#998869"/><polygon points="92.89,119.90 97.30,116.59 97.65,106.18" fill="#1d1e22"/><polygon points="47.45,36.95 46.90,37.10 51.24,37.81" fill="#bda983"/><polygon points="46.90,37.10 47.05,39.70 50.70,37.97" fill="#b6a37e"/><polygon points="84.69,113.67 84.68,114.64 87.12,114.70" fill="#7b8481"/><polygon points="61.02,47.27 55.83,49.02 72.44,50.12" fill="#26282d"/><polygon points="87.10,115.68 88.02,115.03 88.04,114.05" fill="#666e6c"/><polygon points="84.69,113.67 87.12,114.70 88.04,114.05" fill="#808986"/><polygon points="84.68,114.64 87.10,115.68 87.12,114.70" fill="#7b8481"/><polygon points="63.40,66.02 63.47,68.50 63.91,65.80" fill="#998869"/><polygon points="47.05,39.70 50.83,40.59 50.70,37.97" fill="#b6a37e"/><polygon points="73.17,85.52 72.18,86.04 75.51,86.35" fill="#808986"/><polygon points="87.12,114.70 87.10,115.68 88.04,114.05" fill="#666e6c"/><polygon points="80.87,114.68 92.89,119.90 93.15,109.32" fill="#24262b"/><polygon points="67.59,64.60 67.84,75.96 72.60,62.47" fill="#1d1e22"/><polygon points="68.43,76.84 68.65,87.75 80.31,80.82" fill="#24262b"/><polygon points="43.87,33.77 54.74,36.15 60.06,34.64" fill="#26282d"/><polygon points="46.90,37.10 50.70,37.97 51.24,37.81" fill="#bda983"/><polygon points="84.76,108.08 84.29,108.39 89.03,109.83" fill="#bda983"/><polygon points="84.29,108.39 84.27,110.69 88.57,110.15" fill="#b6a37e"/><polygon points="50.83,40.59 51.37,40.43 51.24,37.81" fill="#998869"/><polygon points="80.30,92.04 85.01,89.32 85.11,78.30" fill="#1d1e22"/><polygon points="72.18,86.04 72.19,87.07 74.53,86.88" fill="#7b8481"/><polygon points="74.54,87.92 75.52,87.38 75.51,86.35" fill="#666e6c"/><polygon points="72.18,86.04 74.53,86.88 75.51,86.35" fill="#808986"/><polygon points="72.19,87.07 74.54,87.92 74.53,86.88" fill="#7b8481"/><polygon points="50.70,37.97 50.83,40.59 51.24,37.81" fill="#998869"/><polygon points="84.27,110.69 88.53,112.47 88.57,110.15" fill="#b6a37e"/><polygon points="60.58,57.71 59.53,58.11 62.85,58.35" fill="#808986"/><polygon points="74.53,86.88 74.54,87.92 75.51,86.35" fill="#666e6c"/><polygon points="68.65,87.75 80.30,92.04 80.31,80.82" fill="#24262b"/><polygon points="80.89,104.36 93.15,109.32 97.65,106.18" fill="#26282d"/><polygon points="54.74,36.15 55.25,48.15 60.06,34.64" fill="#1d1e22"/><polygon points="55.83,49.02 56.30,60.54 67.32,52.01" fill="#24262b"/><polygon points="84.29,108.39 88.57,110.15 89.03,109.83" fill="#bda983"/><polygon points="88.53,112.47 88.99,112.15 89.03,109.83" fill="#998869"/><polygon points="72.23,80.38 71.73,80.63 76.37,81.79" fill="#bda983"/><polygon points="71.73,80.63 71.77,83.06 75.87,82.05" fill="#b6a37e"/><polygon points="67.58,63.87 72.59,61.76 72.44,50.12" fill="#1d1e22"/><polygon points="59.53,58.11 59.57,59.20 61.80,58.76" fill="#7b8481"/><polygon points="85.60,90.21 80.90,92.95 98.03,94.65" fill="#26282d"/><polygon points="61.84,59.85 62.88,59.44 62.85,58.35" fill="#666e6c"/><polygon points="88.57,110.15 88.53,112.47 89.03,109.83" fill="#998869"/><polygon points="59.53,58.11 61.80,58.76 62.85,58.35" fill="#808986"/><polygon points="59.57,59.20 61.84,59.85 61.80,58.76" fill="#7b8481"/><polygon points="71.77,83.06 75.89,84.50 75.87,82.05" fill="#b6a37e"/><polygon points="93.15,109.32 92.89,119.90 97.65,106.18" fill="#1d1e22"/><polygon points="61.80,58.76 61.84,59.85 62.85,58.35" fill="#666e6c"/><polygon points="56.30,60.54 67.58,63.87 67.32,52.01" fill="#24262b"/><polygon points="68.43,76.84 80.31,80.82 85.11,78.30" fill="#26282d"/><polygon points="71.73,80.63 75.87,82.05 76.37,81.79" fill="#bda983"/><polygon points="75.89,84.50 76.38,84.24 76.37,81.79" fill="#998869"/><polygon points="59.56,52.37 59.03,52.56 63.56,53.44" fill="#bda983"/><polygon points="59.03,52.56 59.12,55.12 63.04,53.63" fill="#b6a37e"/><polygon points="73.18,62.64 68.18,64.77 85.22,66.09" fill="#26282d"/><polygon points="75.87,82.05 75.89,84.50 76.37,81.79" fill="#998869"/><polygon points="59.12,55.12 63.11,56.23 63.04,53.63" fill="#b6a37e"/><polygon points="85.74,101.78 84.79,102.38 88.21,102.75" fill="#808986"/><polygon points="80.31,80.82 80.30,92.04 85.11,78.30" fill="#1d1e22"/><polygon points="80.90,92.95 80.89,103.71 93.44,97.59" fill="#24262b"/><polygon points="55.83,49.02 67.32,52.01 72.44,50.12" fill="#26282d"/><polygon points="59.03,52.56 63.04,53.63 63.56,53.44" fill="#bda983"/><polygon points="63.11,56.23 63.64,56.03 63.56,53.44" fill="#998869"/><polygon points="93.17,108.64 97.67,105.52 98.03,94.65" fill="#1d1e22"/><polygon points="84.79,102.38 84.78,103.40 87.27,103.36" fill="#7b8481"/><polygon points="60.62,34.76 55.31,36.28 72.27,37.22" fill="#26282d"/><polygon points="87.26,104.38 88.19,103.76 88.21,102.75" fill="#666e6c"/><polygon points="84.79,102.38 87.27,103.36 88.21,102.75" fill="#808986"/><polygon points="84.78,103.40 87.26,104.38 87.27,103.36" fill="#7b8481"/><polygon points="63.04,53.63 63.11,56.23 63.56,53.44" fill="#998869"/><polygon points="73.02,73.61 72.01,74.09 75.41,74.38" fill="#808986"/><polygon points="87.27,103.36 87.26,104.38 88.21,102.75" fill="#666e6c"/><polygon points="80.89,103.71 93.17,108.64 93.44,97.59" fill="#24262b"/><polygon points="67.32,52.01 67.58,63.87 72.44,50.12" fill="#1d1e22"/><polygon points="68.18,64.77 68.41,76.15 80.31,68.39" fill="#24262b"/><polygon points="84.86,96.66 84.38,96.95 89.23,98.30" fill="#bda983"/><polygon points="84.38,96.95 84.36,99.35 88.76,98.60" fill="#b6a37e"/><polygon points="80.31,80.11 85.12,77.60 85.22,66.09" fill="#1d1e22"/><polygon points="72.01,74.09 72.03,75.17 74.41,74.87" fill="#7b8481"/><polygon points="74.42,75.95 75.42,75.46 75.41,74.38" fill="#666e6c"/><polygon points="72.01,74.09 74.41,74.87 75.41,74.38" fill="#808986"/><polygon points="72.03,75.17 74.42,75.95 74.41,74.87" fill="#7b8481"/><polygon points="84.36,99.35 88.72,101.02 88.76,98.60" fill="#b6a37e"/><polygon points="60.16,45.13 59.09,45.49 62.47,45.70" fill="#808986"/><polygon points="74.41,74.87 74.42,75.95 75.41,74.38" fill="#666e6c"/><polygon points="68.41,76.15 80.31,80.11 80.31,68.39" fill="#24262b"/><polygon points="80.90,92.95 93.44,97.59 98.03,94.65" fill="#26282d"/><polygon points="55.31,36.28 55.80,48.29 67.03,38.85" fill="#24262b"/><polygon points="84.38,96.95 88.76,98.60 89.23,98.30" fill="#bda983"/><polygon points="88.72,101.02 89.19,100.72 89.23,98.30" fill="#998869"/><polygon points="72.06,68.29 71.55,68.52 76.29,69.58" fill="#bda983"/><polygon points="71.55,68.52 71.59,71.05 75.78,69.81" fill="#b6a37e"/><polygon points="67.30,51.25 72.43,49.37 72.27,37.22" fill="#1d1e22"/><polygon points="59.09,45.49 59.13,46.62 61.40,46.06" fill="#7b8481"/><polygon points="85.72,78.50 80.92,81.03 98.43,82.60" fill="#26282d"/><polygon points="61.44,47.20 62.51,46.84 62.47,45.70" fill="#666e6c"/><polygon points="88.76,98.60 88.72,101.02 89.23,98.30" fill="#998869"/><polygon points="59.09,45.49 61.40,46.06 62.47,45.70" fill="#808986"/><polygon points="59.13,46.62 61.44,47.20 61.40,46.06" fill="#7b8481"/><polygon points="71.59,71.05 75.80,72.38 75.78,69.81" fill="#b6a37e"/><polygon points="93.44,97.59 93.17,108.64 98.03,94.65" fill="#1d1e22"/><polygon points="61.40,46.06 61.44,47.20 62.47,45.70" fill="#666e6c"/><polygon points="55.80,48.29 67.30,51.25 67.03,38.85" fill="#24262b"/><polygon points="68.18,64.77 80.31,68.39 85.22,66.09" fill="#26282d"/><polygon points="71.55,68.52 75.78,69.81 76.29,69.58" fill="#bda983"/><polygon points="75.80,72.38 76.30,72.14 76.29,69.58" fill="#998869"/><polygon points="59.11,39.60 58.57,39.76 63.20,40.53" fill="#bda983"/><polygon points="58.57,39.76 58.67,42.44 62.66,40.70" fill="#b6a37e"/><polygon points="73.03,50.27 67.91,52.16 85.34,53.34" fill="#26282d"/><polygon points="75.78,69.81 75.80,72.38 76.29,69.58" fill="#998869"/><polygon points="58.67,42.44 62.74,43.41 62.66,40.70" fill="#b6a37e"/><polygon points="85.86,90.04 84.90,90.60 88.39,90.94" fill="#808986"/><polygon points="80.31,68.39 80.31,80.11 85.22,66.09" fill="#1d1e22"/><polygon points="80.92,81.03 80.91,92.26 93.75,85.32" fill="#24262b"/><polygon points="55.31,36.28 67.03,38.85 72.27,37.22" fill="#26282d"/><polygon points="58.57,39.76 62.66,40.70 63.20,40.53" fill="#bda983"/><polygon points="62.74,43.41 63.27,43.23 63.20,40.53" fill="#998869"/><polygon points="93.46,96.88 98.05,93.95 98.43,82.60" fill="#1d1e22"/><polygon points="84.90,90.60 84.89,91.66 87.43,91.51" fill="#7b8481"/><polygon points="87.42,92.58 88.38,92.00 88.39,90.94" fill="#666e6c"/><polygon points="84.90,90.60 87.43,91.51 88.39,90.94" fill="#808986"/><polygon points="84.89,91.66 87.42,92.58 87.43,91.51" fill="#7b8481"/><polygon points="62.66,40.70 62.74,43.41 63.20,40.53" fill="#998869"/><polygon points="72.86,61.18 71.83,61.62 75.31,61.88" fill="#808986"/><polygon points="87.43,91.51 87.42,92.58 88.39,90.94" fill="#666e6c"/><polygon points="80.91,92.26 93.46,96.88 93.75,85.32" fill="#24262b"/><polygon points="67.03,38.85 67.30,51.25 72.27,37.22" fill="#1d1e22"/><polygon points="67.91,52.16 68.16,64.04 80.32,55.38" fill="#24262b"/><polygon points="84.97,84.73 84.48,85.00 89.44,86.26" fill="#bda983"/><polygon points="84.48,85.00 84.46,87.50 88.95,86.53" fill="#b6a37e"/><polygon points="80.31,67.64 85.23,65.36 85.34,53.34" fill="#1d1e22"/><polygon points="71.83,61.62 71.85,62.74 74.28,62.31" fill="#7b8481"/><polygon points="74.30,63.44 75.32,63.00 75.31,61.88" fill="#666e6c"/><polygon points="71.83,61.62 74.28,62.31 75.31,61.88" fill="#808986"/><polygon points="39.15,30.10 39.35,33.07 97.95,42.48" fill="#6e4d38"/><polygon points="71.85,62.74 74.30,63.44 74.28,62.31" fill="#7b8481"/><polygon points="84.46,87.50 88.91,89.06 88.95,86.53" fill="#b6a37e"/><polygon points="74.28,62.31 74.30,63.44 75.31,61.88" fill="#666e6c"/><polygon points="68.16,64.04 80.31,67.64 80.32,55.38" fill="#24262b"/><polygon points="80.92,81.03 93.75,85.32 98.43,82.60" fill="#26282d"/><polygon points="84.48,85.00 88.95,86.53 89.44,86.26" fill="#bda983"/><polygon points="88.91,89.06 89.39,88.78 89.44,86.26" fill="#998869"/><polygon points="71.88,55.66 71.36,55.86 76.20,56.81" fill="#bda983"/><polygon points="71.36,55.86 71.40,58.51 75.69,57.02" fill="#b6a37e"/><polygon points="85.85,66.27 80.95,68.57 98.85,70.01" fill="#26282d"/><polygon points="88.95,86.53 88.91,89.06 89.44,86.26" fill="#998869"/><polygon points="71.40,58.51 75.71,59.70 75.69,57.02" fill="#b6a37e"/><polygon points="93.14,122.29 95.01,123.12 97.30,45.06" fill="#6e4d38"/><polygon points="93.75,85.32 93.46,96.88 98.43,82.60" fill="#1d1e22"/><polygon points="67.91,52.16 80.32,55.38 85.34,53.34" fill="#26282d"/><polygon points="71.36,55.86 75.69,57.02 76.20,56.81" fill="#bda983"/><polygon points="75.71,59.70 76.22,59.49 76.20,56.81" fill="#998869"/><polygon points="72.88,37.35 67.64,38.98 85.46,40.00" fill="#26282d"/><polygon points="75.69,57.02 75.71,59.70 76.20,56.81" fill="#998869"/><polygon points="85.99,77.77 85.01,78.29 88.58,78.60" fill="#808986"/><polygon points="80.32,55.38 80.31,67.64 85.34,53.34" fill="#1d1e22"/><polygon points="80.95,68.57 80.93,80.31 94.07,72.49" fill="#24262b"/><polygon points="93.77,84.58 98.46,81.88 98.85,70.01" fill="#1d1e22"/><polygon points="85.01,78.29 85.00,79.40 87.60,79.12" fill="#7b8481"/><polygon points="97.30,45.06 95.01,123.12 119.87,36.27" fill="#5b3f2d"/><polygon points="87.59,80.24 88.56,79.71 88.58,78.60" fill="#666e6c"/><polygon points="39.15,30.10 97.95,42.48 122.81,33.09" fill="#72503a"/><polygon points="85.01,78.29 87.60,79.12 88.58,78.60" fill="#808986"/><polygon points="85.00,79.40 87.59,80.24 87.60,79.12" fill="#7b8481"/><polygon points="117.83,35.90 95.13,44.58 119.87,36.27" fill="#72503a"/><polygon points="72.70,48.19 71.65,48.57 75.20,48.80" fill="#808986"/><polygon points="87.60,79.12 87.59,80.24 88.58,78.60" fill="#666e6c"/><polygon points="80.93,80.31 93.77,84.58 94.07,72.49" fill="#24262b"/><polygon points="67.64,38.98 67.90,51.40 80.33,41.77" fill="#24262b"/><polygon points="85.08,72.26 84.58,72.51 89.65,73.66" fill="#bda983"/><polygon points="84.58,72.51 84.56,75.13 89.16,73.91" fill="#b6a37e"/><polygon points="80.32,54.60 85.35,52.57 85.46,40.00" fill="#1d1e22"/><polygon points="71.65,48.57 71.66,49.75 74.15,49.19" fill="#7b8481"/><polygon points="74.17,50.37 75.21,49.98 75.20,48.80" fill="#666e6c"/><polygon points="71.65,48.57 74.15,49.19 75.20,48.80" fill="#808986"/><polygon points="71.66,49.75 74.17,50.37 74.15,49.19" fill="#7b8481"/><polygon points="84.56,75.13 89.12,76.56 89.16,73.91" fill="#b6a37e"/><polygon points="74.15,49.19 74.17,50.37 75.20,48.80" fill="#666e6c"/><polygon points="67.90,51.40 80.32,54.60 80.33,41.77" fill="#24262b"/><polygon points="80.95,68.57 94.07,72.49 98.85,70.01" fill="#26282d"/><polygon points="84.58,72.51 89.16,73.91 89.65,73.66" fill="#bda983"/><polygon points="89.12,76.56 89.61,76.30 89.65,73.66" fill="#998869"/><polygon points="71.70,42.46 71.16,42.63 76.12,43.46" fill="#bda983"/><polygon points="71.16,42.63 71.21,45.41 75.59,43.64" fill="#b6a37e"/><polygon points="85.98,53.50 80.97,55.55 99.29,56.83" fill="#26282d"/><polygon points="97.85,45.96 122.59,36.19 122.81,33.09" fill="#5b3f2d"/><polygon points="89.16,73.91 89.12,76.56 89.65,73.66" fill="#998869"/><polygon points="71.21,45.41 75.61,46.45 75.59,43.64" fill="#b6a37e"/><polygon points="94.07,72.49 93.77,84.58 98.85,70.01" fill="#1d1e22"/><polygon points="67.64,38.98 80.33,41.77 85.46,40.00" fill="#26282d"/><polygon points="71.16,42.63 75.59,43.64 76.12,43.46" fill="#bda983"/><polygon points="75.61,46.45 76.13,46.26 76.12,43.46" fill="#998869"/><polygon points="75.59,43.64 75.61,46.45 76.12,43.46" fill="#998869"/><polygon points="86.13,64.94 85.12,65.40 88.78,65.69" fill="#808986"/><polygon points="80.33,41.77 80.32,54.60 85.46,40.00" fill="#1d1e22"/><polygon points="80.97,55.55 80.95,67.82 94.41,59.04" fill="#24262b"/><polygon points="94.09,71.71 98.88,69.25 99.29,56.83" fill="#1d1e22"/><polygon points="85.12,65.40 85.11,66.57 87.78,66.16" fill="#7b8481"/><polygon points="87.76,67.33 88.76,66.85 88.78,65.69" fill="#666e6c"/><polygon points="85.12,65.40 87.78,66.16 88.78,65.69" fill="#808986"/><polygon points="85.11,66.57 87.76,67.33 87.78,66.16" fill="#7b8481"/><polygon points="87.78,66.16 87.76,67.33 88.78,65.69" fill="#666e6c"/><polygon points="80.95,67.82 94.09,71.71 94.41,59.04" fill="#24262b"/><polygon points="85.20,59.22 84.69,59.44 89.88,60.47" fill="#bda983"/><polygon points="84.69,59.44 84.67,62.18 89.38,60.69" fill="#b6a37e"/><polygon points="84.67,62.18 89.33,63.46 89.38,60.69" fill="#b6a37e"/><polygon points="80.97,55.55 94.41,59.04 99.29,56.83" fill="#26282d"/><polygon points="84.69,59.44 89.38,60.69 89.88,60.47" fill="#bda983"/><polygon points="89.33,63.46 89.83,63.23 89.88,60.47" fill="#998869"/><polygon points="86.12,40.14 80.99,41.91 99.75,43.02" fill="#26282d"/><polygon points="89.38,60.69 89.33,63.46 89.88,60.47" fill="#998869"/><polygon points="95.13,44.58 93.14,122.29 97.30,45.06" fill="#6e4d38"/><polygon points="94.41,59.04 94.09,71.71 99.29,56.83" fill="#1d1e22"/><polygon points="39.35,33.07 97.85,45.96 97.95,42.48" fill="#6e4d38"/><polygon points="86.28,51.50 85.24,51.91 88.99,52.16" fill="#808986"/><polygon points="80.99,41.91 80.97,54.76 94.76,44.93" fill="#24262b"/><polygon points="95.13,44.58 97.30,45.06 119.87,36.27" fill="#72503a"/><polygon points="94.43,58.23 99.32,56.03 99.75,43.02" fill="#1d1e22"/><polygon points="85.24,51.91 85.23,53.13 87.96,52.58" fill="#7b8481"/><polygon points="87.95,53.81 88.97,53.38 88.99,52.16" fill="#666e6c"/><polygon points="85.24,51.91 87.96,52.58 88.99,52.16" fill="#808986"/><polygon points="85.23,53.13 87.95,53.81 87.96,52.58" fill="#7b8481"/><polygon points="87.96,52.58 87.95,53.81 88.99,52.16" fill="#666e6c"/><polygon points="80.97,54.76 94.43,58.23 94.76,44.93" fill="#24262b"/><polygon points="85.32,45.55 84.80,45.74 90.12,46.64" fill="#bda983"/><polygon points="84.80,45.74 84.78,48.62 89.60,46.84" fill="#b6a37e"/><polygon points="84.78,48.62 89.55,49.75 89.60,46.84" fill="#b6a37e"/><polygon points="80.99,41.91 94.76,44.93 99.75,43.02" fill="#26282d"/><polygon points="84.80,45.74 89.60,46.84 90.12,46.64" fill="#bda983"/><polygon points="89.55,49.75 90.07,49.54 90.12,46.64" fill="#998869"/><polygon points="97.95,42.48 97.85,45.96 122.81,33.09" fill="#5b3f2d"/><polygon points="89.60,46.84 89.55,49.75 90.12,46.64" fill="#998869"/><polygon points="94.76,44.93 94.43,58.23 99.75,43.02" fill="#1d1e22"/></svg>
