<svg xmlns="http://www.w3.org/2000/svg" viewBox="0 0 160 154"><rect width="160" height="154" fill="#20272b"/><ellipse cx="80" cy="128" rx="51" ry="9" fill="#141b20"/><polygon points="42.03,104.72 78.86,84.86 78.77,39.57" fill="#5b3f2d"/><polygon points="77.20,39.24 36.70,52.48 78.77,39.57" fill="#72503a"/><polygon points="65.40,38.50 25.86,50.65 136.36,54.06" fill="#bda983"/><polygon points="38.33,52.95 42.03,104.72 78.77,39.57" fill="#5b3f2d"/><polygon points="40.52,104.03 42.03,104.72 38.33,52.95" fill="#6e4d38"/><polygon points="36.70,52.48 38.33,52.95 78.77,39.57" fill="#72503a"/><polygon points="83.46,123.65 117.86,98.43 121.36,48.68" fill="#5b3f2d"/><polygon points="36.70,52.48 40.52,104.03 38.33,52.95" fill="#6e4d38"/><polygon points="99.45,130.20 131.56,103.69 136.36,54.06" fill="#998869"/><polygon points="25.86,50.65 30.31,98.75 101.66,72.83" fill="#b6a37e"/><polygon points="119.38,48.25 81.68,65.44 121.36,48.68" fill="#72503a"/><polygon points="83.85,66.07 83.46,123.65 121.36,48.68" fill="#5b3f2d"/><polygon points="25.86,50.65 101.66,72.83 136.36,54.06" fill="#bda983"/><polygon points="30.31,98.75 99.45,130.20 101.66,72.83" fill="#b6a37e"/><polygon points="81.51,122.76 83.46,123.65 83.85,66.07" fill="#6e4d38"/><polygon points="81.68,65.44 83.85,66.07 121.36,48.68" fill="#72503a"/><polygon points="101.66,72.83 99.45,130.20 136.36,54.06" fill="#998869"/><polygon points="81.68,65.44 81.51,122.76 83.85,66.07" fill="#6e4d38"/></svg>
