<svg xmlns="http://www.w3.org/2000/svg" viewBox="0 0 160 154"><rect width="160" height="154" fill="#20272b"/><ellipse cx="80" cy="128" rx="51" ry="9" fill="#141b20"/><polygon points="86.89,58.33 60.16,62.12 88.64,59.66" fill="#26282d"/><polygon points="61.71,67.71 88.58,63.66 88.64,59.66" fill="#1d1e22"/><polygon points="60.16,62.12 61.58,63.56 88.64,59.66" fill="#26282d"/><polygon points="61.58,63.56 61.71,67.71 88.64,59.66" fill="#1d1e22"/><polygon points="60.16,62.12 60.30,66.22 61.58,63.56" fill="#25272c"/><polygon points="60.30,66.22 61.71,67.71 61.58,63.56" fill="#25272c"/><polygon points="73.48,64.32 64.08,68.40 83.11,67.14" fill="#16181e"/><polygon points="73.88,74.47 83.10,70.05 83.11,67.14" fill="#101116"/><polygon points="64.08,68.40 73.85,71.46 83.11,67.14" fill="#16181e"/><polygon points="79.48,61.22 27.72,83.58 121.24,72.81" fill="#bda983"/><polygon points="64.08,68.40 64.16,71.34 73.85,71.46" fill="#15171c"/><polygon points="73.85,71.46 73.88,74.47 83.11,67.14" fill="#101116"/><polygon points="119.00,67.72 117.88,80.47 123.71,68.02" fill="#26282d"/><polygon points="64.16,71.34 73.88,74.47 73.85,71.46" fill="#15171c"/><polygon points="95.09,70.63 86.02,75.27 106.04,73.83" fill="#16181e"/><polygon points="117.88,80.47 123.19,80.85 123.71,68.02" fill="#26282d"/><polygon points="97.09,81.95 105.90,76.90 106.04,73.83" fill="#101116"/><polygon points="78.75,67.49 65.84,73.42 83.56,68.92" fill="#72503a"/><polygon points="70.86,81.77 83.52,75.36 83.56,68.92" fill="#5b3f2d"/><polygon points="86.02,75.27 97.19,78.77 106.04,73.83" fill="#16181e"/><polygon points="86.02,75.27 85.99,78.37 97.19,78.77" fill="#15171c"/><polygon points="97.19,78.77 97.09,81.95 106.04,73.83" fill="#101116"/><polygon points="85.99,78.37 97.09,81.95 97.19,78.77" fill="#15171c"/><polygon points="72.99,112.15 120.62,81.32 121.24,72.81" fill="#998869"/><polygon points="117.56,85.20 122.82,85.59 123.19,80.85" fill="#222328"/><polygon points="65.84,73.42 70.75,75.02 83.56,68.92" fill="#72503a"/><polygon points="117.88,80.47 117.56,85.20 123.19,80.85" fill="#222328"/><polygon points="70.75,75.02 70.86,81.77 83.56,68.92" fill="#5b3f2d"/><polygon points="65.84,73.42 66.01,80.09 70.75,75.02" fill="#6e4d38"/><polygon points="66.01,80.09 70.86,81.77 70.75,75.02" fill="#6e4d38"/><polygon points="52.88,77.47 48.28,79.55 72.97,84.57" fill="#803838"/><polygon points="27.72,83.58 72.85,101.90 121.24,72.81" fill="#bda983"/><polygon points="48.28,79.55 48.50,83.31 68.47,86.93" fill="#7b3636"/><polygon points="48.28,79.55 68.47,86.93 72.97,84.57" fill="#803838"/><polygon points="48.50,83.31 68.55,90.88 68.47,86.93" fill="#7b3636"/><polygon points="27.72,83.58 28.59,92.76 72.85,101.90" fill="#b6a37e"/><polygon points="68.55,90.88 73.02,88.47 72.97,84.57" fill="#662c2c"/><polygon points="68.47,86.93 68.55,90.88 72.97,84.57" fill="#662c2c"/><polygon points="72.85,101.90 72.99,112.15 121.24,72.81" fill="#998869"/><polygon points="28.59,92.76 72.99,112.15 72.85,101.90" fill="#b6a37e"/></svg>
